<svg width="150" height="101" viewBox="0 0 150 101" fill="none" xmlns="http://www.w3.org/2000/svg">
<path d="M0.000876121 50.4004C-0.0317624 49.3974 0.854499 48.6292 1.49221 47.8757C2.60945 43.3253 4.82636 38.1095 8.04502 32.9352C13.2044 24.6442 26.8548 11.2767 32.0419 9.20457C32.2725 9.11597 32.5101 9.04561 32.7524 8.99417C33.2696 7.30856 33.5432 6.14894 35.5593 4.79605C41.1078 1.07255 47.3016 0.0230173 51.4015 1.72575C55.5014 3.42848 57.7861 12.8645 53.3699 16.0913C49.1595 19.1837 40.8292 12.9476 38.1628 16.9403C35.4965 20.9329 32.5616 34.2171 27.6783 42.7088C28.9426 42.5357 30.2178 42.4491 31.4945 42.4495C37.1284 42.4495 42.1899 44.1131 45.7701 46.7699C48.8281 41.9602 54.1708 38.7651 60.2641 38.7651C66.5835 38.7651 72.0768 42.2024 75.077 47.3081V84.9836H67.0002L65.2779 81.9059C59.7294 79.7628 53.169 74.2338 48.6122 68.3379C30.3798 75.5353 0.410113 62.2119 0.000876121 50.4004Z" fill="#E4BD1D"/>
<path d="M115.762 15.4185V27.3058H129.069L111.527 44.2867C104.96 40.1535 97.0506 38.5465 89.3358 39.7778C81.621 41.0092 74.6513 44.9911 69.7808 50.9498C64.9104 56.9086 62.4869 64.4187 62.9813 72.0212C63.4756 79.6238 66.8525 86.7758 72.4558 92.0879C78.0591 97.3999 85.4888 100.493 93.3015 100.765C101.114 101.038 108.752 98.4712 114.731 93.5634C120.71 88.6556 124.603 81.7573 125.654 74.2087C126.706 66.6601 124.84 59.0002 120.419 52.7172L137.675 35.9027V48.7637H149.887C149.887 38.3418 150.002 25.8061 150 15.4111L115.762 15.4185ZM94.4216 51.746C98.1458 51.746 101.786 52.8221 104.883 54.8383C107.979 56.8544 110.393 59.7201 111.818 63.0728C113.243 66.4255 113.616 70.1148 112.89 73.674C112.163 77.2333 110.37 80.5027 107.736 83.0688C105.103 85.6348 101.748 87.3824 98.0951 88.0903C94.4425 88.7983 90.6564 88.435 87.2157 87.0462C83.775 85.6575 80.8341 83.3057 78.7651 80.2883C76.696 77.2709 75.5917 73.7234 75.5917 70.0944C75.5917 65.2281 77.5755 60.5611 81.1068 57.1201C84.6381 53.6791 89.4276 51.746 94.4216 51.746V51.746Z" fill="#6D2288"/>
</svg>
